# xmcd
# Track frame offsets:
# 150
# 15192
# 27151
# 43825
# 58897
# 72557
# 88426
# 101427
# 112631
# 126903
# 139377
# 149759
#
# Disc length: 2180 seconds
# Revision: 1
# Processed by: cddbd v1.5.2PL0 Copyright (c) Steve Scherf et al.
# Submitted via: VisiTrax 2.11.2.271 - For more info visit www.synapsa.com
#
DISCID=b108820c
DTITLE=Slim Dusty - Cattle Camp Crooner
DYEAR=1969
DGENRE=Australian Country
TTITLE0=Arcadia Valley
TTITLE1=Dry Weather Wind
TTITLE2=Getting Away From It All
TTITLE3=Casey's Luck
TTITLE4=Old Tiboob'ra
TTITLE5=Somewhere Up In Queensland
TTITLE6=Cattle Camp Crooner
TTITLE7=Ribs Cooked On The Coals
TTITLE8=Relics Of The Past
TTITLE9=Paddy Gramp
TTITLE10=Horse And Hobble Days
TTITLE11=The Wave Hill Track
EXTD=1996 EMI Music Australia
EXTT0=
EXTT1=
EXTT2=
EXTT3=
EXTT4=
EXTT5=
EXTT6=
EXTT7=
EXTT8=
EXTT9=
EXTT10=
EXTT11=
PLAYORDER=
